<?xml version="1.0" encoding="UTF-8"?>
<svg id="Camada_1" data-name="Camada 1" xmlns="http://www.w3.org/2000/svg" viewBox="0 0 261.42 330.55">
  <defs>
    <style>
      .cls-1 {
        fill: #fff;
      }

      .cls-1, .cls-2, .cls-3, .cls-4, .cls-5 {
        fill-rule: evenodd;
      }

      .cls-2 {
        fill: #4d291f;
      }

      .cls-3 {
        fill: #af6627;
      }

      .cls-4 {
        fill: #c1171a;
      }

      .cls-5 {
        fill: #d57b18;
      }
    </style>
  </defs>
  <path class="cls-5" d="M205.74,110.65c13.28,31.5-.02,58.2,19.32,115.71-49.15-15.56-139.55-15.54-188.69,0,19.37-57.63,5.97-84.27,19.39-115.91,4.3-10.13,10.46-18.64,17.81-25.47,3.87-1.44,10.14,4.72,47.65-22.03l20.88-.61c13.44,9.62,29.14,20.37,42.67,22.29,1.02.15,2.02.24,3.01.31,7.43,6.89,13.65,15.49,17.95,25.72h0ZM73.9,149.36c1.13-15.01,4.46-38.58,15.57-48.81,8.95-8.24-10.93-27.12-23.58,16.76-2.89,10.04-4.39,21.01-5.16,31.08-.66,8.67,12.53,9.64,13.17.97h0ZM72.93,174.09c.16-8.6-12.91-9.07-13.19-.27-.21,6.97-2.74,14.46,4.59,15.84,8.89,1.67,8.39-10.07,8.61-15.57Z"/>
  <path class="cls-5" d="M103.47,261.76l26.66-1.79,27.82,1.81c-10.56,23.33-43.94,23.35-54.48-.02Z"/>
  <path class="cls-5" d="M241.75,266.39c-46.95-24.95-175.14-24.98-222.06,0l10.54-23.69c22.49-9.84,61.4-14.77,100.48-14.77s77.98,4.93,100.48,14.77l10.56,23.69Z"/>
  <path class="cls-3" d="M89.74,262.84c12.9,39.44,69.03,39.44,81.93,0,8.49.82,16.69,1.9,24.36,3.23,27.99,4.86,48.83,12.65,51.79,23.08-2.96,10.41-23.8,18.21-51.79,23.08-39.16,6.79-91.47,6.81-130.65,0-27.97-4.85-48.83-12.67-51.79-23.08,4.62-16.31,51.1-23.9,76.15-26.31Z"/>
  <path class="cls-4" d="M118.06,54.26c-20.15,11.67-38.14,21.58-49.41,18.52-8.08-2.2-12.56-11.21-12.56-30.29,0-45.73,27.42-31.81,61.97-11.76l-2.55,10.61v8.07c.63,1.7,1.47,3.33,2.55,4.85Z"/>
  <path class="cls-4" d="M148.7,31.21c30.64-21.78,55.38-37.87,55.38,11.28s-24.73,33.05-55.38,11.27v-22.55Z"/>
  <path class="cls-4" d="M124.4,35.8c6.3-5.91,14.65-4.33,17.2.69,2.9,5.73-1,15.47-10.52,15.47-8.35,0-12.67-10.19-6.68-16.16Z"/>
  <path class="cls-2" d="M60.06,79.85c-6.66,7.18-12.29,15.65-16.43,25.43-5.1,11.96-8,25.84-8,41.54,0,39-8.17,67.2-16.58,88.3l-.07.14v.02l-.05.14-.06.14c-3.01,7.53-6.06,14.14-8.76,20.02-6.67,14.46-11.48,24.93-9.77,34.82,3.03,17.38,28.61,28.89,62.81,34.84,20.37,3.55,43.99,5.3,67.54,5.3s47.19-1.76,67.54-5.3c34.21-5.95,59.78-17.46,62.81-34.84,1.72-9.89-3.1-20.36-9.75-34.82l-.14-.3c-2.67-5.81-5.66-12.33-8.63-19.71l-.06-.14-.06-.16-.07-.14c-8.39-21.09-16.58-49.3-16.58-88.3,0-15.58-2.87-29.37-7.9-41.29-3.91-9.3-9.14-17.44-15.36-24.39,7.44-5.45,12.06-17.18,12.12-38.31l.02-.18v-.33l-.02-.17c-.09-34.97-12.74-44.24-29.86-41.78-13.53,1.92-29.23,12.68-42.67,22.28-3.26-1.81-7.02-2.85-11.02-2.85-3.53,0-6.88.8-9.86,2.24C107.96,12.6,92.64,2.25,79.4.37c-17.12-2.45-29.77,6.81-29.84,41.78l-.02.17v.33l.02.18c.03,19.58,4.01,31.09,10.5,37.02h0ZM89.47,100.56c-5,4.61-8.51,12-10.91,20.38-2.58,8.92-3.93,19.05-4.66,28.43-.27,3.66-3.44,6.38-7.08,6.09-3.64-.25-6.36-3.44-6.09-7.06.77-10.06,2.28-21.04,5.16-31.08,3.04-10.56,7.69-20.06,14.64-26.48,2.69-2.47,6.86-2.29,9.32.38,2.47,2.68,2.29,6.86-.38,9.33h0ZM72.93,174.09l-.26,5.92c-.11,1.45-.32,2.71-.64,4.41-.66,3.57-4.12,5.91-7.71,5.25-3.56-.66-5.91-4.12-5.25-7.69l.45-3.12.21-5.04c.07-3.64,3.08-6.54,6.72-6.47,3.63.07,6.53,3.08,6.47,6.74h0ZM30.23,242.7c22.49-9.84,61.4-14.77,100.48-14.77s77.98,4.93,100.48,14.77c2.78,6.72,5.52,12.72,8.01,18.14l.11.27,2.44,5.29c-11.1-5.88-26.2-10.32-43.5-13.33-20.36-3.55-44-5.32-67.54-5.32s-47.17,1.77-67.54,5.32c-17.29,2.99-32.38,7.42-43.48,13.33l2.42-5.29c2.51-5.48,5.31-11.56,8.12-18.4h0ZM225.06,226.35c-24.57-7.78-59.53-11.65-94.36-11.65s-69.78,3.89-94.33,11.65c6.85-20.36,12.49-46.17,12.49-79.53,0-13.91,2.53-26.04,6.9-36.38,4.3-10.13,10.46-18.64,17.81-25.47,1.86.06,3.82-.06,5.83-.35,13.24-1.89,28.56-12.23,41.83-21.68,2.97,1.44,6.33,2.25,9.86,2.25,4,0,7.76-1.04,11.02-2.86,13.44,9.62,29.14,20.37,42.67,22.29,1.02.15,2.02.24,3.01.31,7.43,6.89,13.65,15.49,17.95,25.72,4.34,10.26,6.81,22.33,6.81,36.17,0,33.37,5.64,59.17,12.51,79.53h0ZM13.59,289.15c2.96-10.43,23.82-18.24,51.79-23.08,7.69-1.35,15.88-2.4,24.36-3.23,2.54,7.76,7.2,14.55,13.31,19.68,7.49,6.27,17.15,10.04,27.65,10.04s20.18-3.76,27.65-10.04c6.11-5.13,10.77-11.92,13.32-19.68,8.49.82,16.69,1.9,24.36,3.23,27.99,4.86,48.83,12.65,51.79,23.08-2.96,10.41-23.8,18.21-51.79,23.08-19.56,3.39-42.42,5.09-65.33,5.09s-45.77-1.68-65.32-5.09c-27.97-4.85-48.83-12.67-51.79-23.08h0ZM103.47,261.76c8.94-.54,18.1-.81,27.24-.81s18.3.27,27.24.83c-1.86,4.12-4.64,7.74-8.06,10.61-5.16,4.32-11.87,6.94-19.18,6.94s-14.01-2.62-19.17-6.94c-3.4-2.87-6.2-6.49-8.06-10.63h0ZM152.79,49.11h22.26c3.66,0,6.63-2.97,6.63-6.61s-2.97-6.61-6.63-6.61h-22.26c-.38-1.25-.86-2.44-1.43-3.59,11.9-8.45,25.3-17.45,35.27-18.86,8.5-1.21,14.78,5.37,14.78,29.06s-6.29,30.26-14.78,29.06c-9.96-1.42-23.37-10.41-35.27-18.86.57-1.16,1.06-2.34,1.43-3.58h0ZM109.38,35.88h-20.25c-3.66,0-6.63,2.96-6.63,6.61s2.97,6.61,6.63,6.61h20.25c.48,1.62,1.14,3.17,1.99,4.62-11.52,8.14-24.25,16.45-33.82,17.82-8.49,1.2-14.78-5.38-14.78-29.06s6.29-30.27,14.78-29.06c9.57,1.37,22.29,9.7,33.82,17.83-.84,1.45-1.49,2.99-1.99,4.62h0ZM124.4,35.8l.55-.53h.01s.09-.08.09-.08l.02-.02.07-.05.07-.05.02-.02.08-.07v-.02c1.58-1.22,3.61-1.92,5.76-1.92,2.6,0,5,1.07,6.68,2.77,1.72,1.7,2.78,4.09,2.78,6.69s-1.06,4.99-2.78,6.69c-1.69,1.7-4.08,2.77-6.68,2.77-2.17,0-4.18-.72-5.76-1.94v-.02l-.08-.06-.02-.03-.07-.05-.07-.04-.02-.02-.09-.07h-.01s-.55-.54-.55-.54c-1.65-1.65-2.72-3.93-2.78-6.45v-.49c.06-2.5,1.13-4.8,2.78-6.44Z"/>
  <path class="cls-1" d="M59.74,173.83c-.21,6.97-2.74,14.46,4.59,15.84,8.89,1.67,8.39-10.07,8.61-15.57.16-8.6-12.91-9.07-13.19-.27Z"/>
  <path class="cls-1" d="M60.73,148.4c-.66,8.67,12.53,9.64,13.17.97,1.13-15.01,4.46-38.58,15.57-48.81,8.95-8.24-10.93-27.12-23.58,16.76-2.89,10.04-4.39,21.01-5.16,31.08Z"/>
  <path class="cls-3" d="M188.27,231.78l9.46,21.24c17.71,3.1,33.06,7.56,44.01,13.37l-10.56-23.69c-11.02-4.81-25.95-8.46-42.92-10.91Z"/>
  <path class="cls-3" d="M178.93,217.28c17.24,1.94,33.13,4.97,46.13,9.07-19.34-57.51-6.04-84.21-19.32-115.71-4.3-10.23-10.52-18.83-17.95-25.72-.99-.06-1.99-.15-3.01-.31-13.53-1.93-29.23-12.67-42.67-22.29l-20.88.61c-3.96,2.81-7.55,5.26-10.84,7.39,27.13,3.01,37.92,6.62,52.11,40.32,12.55,29.79,1.33,55.3,16.43,106.64Z"/>
  <path class="cls-5" d="M196.03,298.11c-39.16,6.79-91.47,6.81-130.65,0-21.27-3.69-38.42-9.1-46.72-16.06-2.56,2.15-4.34,4.52-5.07,7.1,2.96,10.41,23.82,18.23,51.79,23.08,39.18,6.81,91.49,6.79,130.65,0,27.99-4.87,48.83-12.67,51.79-23.08-.7-2.51-2.46-4.87-5.09-7.06-8.31,6.94-25.45,12.33-46.7,16.02Z"/>
</svg>