<?xml version="1.0" encoding="UTF-8"?>
<svg id="Camada_1" data-name="Camada 1" xmlns="http://www.w3.org/2000/svg" viewBox="0 0 317.54 411.55">
  <defs>
    <style>
      .cls-1 {
        fill: none;
      }

      .cls-2 {
        fill: #fff;
      }

      .cls-2, .cls-3, .cls-4, .cls-5, .cls-6 {
        fill-rule: evenodd;
      }

      .cls-3 {
        fill: #437a36;
      }

      .cls-4 {
        fill: #4d291f;
      }

      .cls-7, .cls-5 {
        fill: #c1171a;
      }

      .cls-8 {
        fill: #9b191b;
      }

      .cls-6 {
        fill: #279347;
      }
    </style>
  </defs>
  <path class="cls-4" d="M218.47,114.17c27.96,10.62,52.02,29.18,69.39,52.9,2.7,3.7,5.23,7.48,7.6,11.43.26.36.48.74.69,1.17,13.6,22.91,21.4,49.68,21.4,78.2,0,42.4-17.22,80.84-45.01,108.65-27.86,27.84-66.3,45.03-108.69,45.03s-80.86-17.2-108.65-45.01c-27.84-27.84-45.06-66.27-45.06-108.67,0-34.68,11.5-66.7,30.9-92.4l.4-.48c18.14-23.9,43.12-42.32,71.97-52.33-.18-1.17-.28-2.34-.28-3.52v-34.17c0-5.99,2.46-11.45,6.4-15.37,3.95-3.94,9.37-6.4,15.37-6.4h23.53V7.71c0-4.24,3.44-7.71,7.69-7.71s7.7,3.46,7.7,7.71v45.48h23.51c5.99,0,11.45,2.45,15.37,6.4,3.94,3.92,6.4,9.37,6.4,15.37v34.17c0,1.73-.2,3.42-.6,5.05h0ZM260.42,303.88v-15.29c0-7.44,3.34-14.16,8.69-18.99,5.13-4.63,12.17-7.48,19.87-7.48,4.64,0,9.07,1.05,12.97,2.9.12-2.37.18-4.75.18-7.16,0-24.18-6.2-46.86-17.04-66.62-2.19.58-4.12,1.65-5.67,3-2.23,1.99-3.6,4.67-3.6,7.54v30.94c0,7.4-3.34,14.16-8.69,18.97-5.11,4.65-12.19,7.52-19.89,7.52s-14.74-2.88-19.85-7.5c-5.35-4.81-8.69-11.54-8.69-18.99v-30.94c0-2.86-1.37-5.55-3.58-7.54-2.41-2.17-5.83-3.52-9.57-3.52s-7.18,1.35-9.6,3.52c-2.19,1.99-3.56,4.69-3.56,7.54v30.94c0,7.44-3.34,14.18-8.69,18.99-5.13,4.63-12.19,7.5-19.87,7.5s-14.76-2.88-19.87-7.5c-5.35-4.81-8.69-11.54-8.69-18.99v-30.94c0-2.86-1.37-5.55-3.58-7.54-2.42-2.17-5.81-3.52-9.58-3.52s-7.2,1.35-9.59,3.52c-2.21,1.95-3.6,4.65-3.6,7.54v30.94c0,7.44-3.32,14.16-8.67,18.99-5.13,4.63-12.17,7.5-19.87,7.5s-14.74-2.88-19.88-7.5c-5.32-4.81-8.67-11.54-8.67-18.99v-30.94c0-2.89-1.39-5.59-3.58-7.54-1.53-1.39-3.46-2.43-5.68-3.02-10.86,19.75-17.05,42.46-17.05,66.64,0,2.41.04,4.79.16,7.16,3.92-1.85,8.35-2.9,12.99-2.9,7.69,0,14.72,2.86,19.85,7.48,5.35,4.83,8.69,11.55,8.69,18.99v30.94c0,2.86,1.39,5.57,3.58,7.54,2.39,2.17,5.81,3.54,9.57,3.54s7.18-1.37,9.59-3.52c2.17-1.97,3.56-4.69,3.56-7.56v-30.94c0-7.4,3.34-14.14,8.71-18.95,5.11-4.67,12.17-7.52,19.87-7.52s14.74,2.86,19.88,7.48c5.35,4.83,8.69,11.55,8.69,18.99v30.94c0,2.86,1.37,5.57,3.56,7.54,2.41,2.17,5.81,3.54,9.59,3.54s7.16-1.37,9.57-3.54c2.21-1.97,3.58-4.69,3.58-7.54v-30.94c0-7.44,3.34-14.16,8.69-18.99,5.11-4.63,12.17-7.48,19.88-7.48s14.74,2.86,19.87,7.48c5.35,4.83,8.67,11.55,8.67,18.99v30.94c0,2.86,1.39,5.57,3.58,7.54,2.41,2.17,5.81,3.54,9.57,3.54s7.18-1.37,9.59-3.54c2.21-1.95,3.58-4.65,3.58-7.54v-15.65h0ZM299.95,282.48c-.95-1.16-2.15-2.19-3.54-3.02-2.09-1.25-4.65-1.95-7.42-1.95-3.76,0-7.16,1.37-9.58,3.52-2.21,1.99-3.58,4.69-3.58,7.56v30.94c0,7.4-3.34,14.14-8.69,18.95-5.11,4.67-12.19,7.52-19.89,7.52s-14.74-2.86-19.85-7.48c-5.35-4.83-8.69-11.55-8.69-18.99v-30.94c0-2.86-1.37-5.57-3.58-7.54-2.41-2.17-5.83-3.54-9.57-3.54s-7.18,1.37-9.6,3.54c-2.19,1.97-3.56,4.69-3.56,7.54v30.94c0,7.44-3.34,14.16-8.69,18.99-5.13,4.63-12.19,7.48-19.87,7.48s-14.76-2.86-19.87-7.48c-5.35-4.83-8.69-11.55-8.69-18.99v-30.94c0-2.86-1.37-5.57-3.58-7.54-2.42-2.17-5.81-3.54-9.58-3.54s-7.2,1.37-9.59,3.54c-2.21,1.95-3.6,4.65-3.6,7.54v30.94c0,7.44-3.32,14.16-8.67,18.99-5.13,4.63-12.17,7.48-19.87,7.48s-14.74-2.86-19.88-7.48c-5.32-4.83-8.67-11.55-8.67-18.99v-30.94c0-2.86-1.39-5.57-3.58-7.54-2.42-2.17-5.83-3.54-9.58-3.54-2.61,0-5.02.62-7.04,1.71l-.38.24c-1.41.84-2.62,1.85-3.56,3.02,5.11,28.34,18.83,53.68,38.32,73.17,25.02,25.02,59.59,40.51,97.81,40.51s72.79-15.49,97.81-40.51c19.49-19.49,33.21-44.84,38.3-73.17h0ZM260.42,217.07v-15.29c0-7.44,3.36-14.2,8.77-19.02,2.21-1.95,4.75-3.6,7.54-4.83l-1.27-1.77c-16.39-22.39-39.38-39.66-66.09-48.96-3.46,2.31-7.6,3.66-12.07,3.66h-62.43c-5.07,0-9.77-1.75-13.49-4.71-27.27,8.79-50.87,25.83-67.8,48.13l-.28.42-2.37,3.22c2.81,1.23,5.37,2.9,7.56,4.87,5.41,4.83,8.75,11.57,8.75,18.99v30.94c0,2.88,1.39,5.57,3.58,7.54,2.39,2.19,5.81,3.56,9.57,3.56s7.18-1.37,9.59-3.54c2.17-1.97,3.56-4.67,3.56-7.56v-30.94c0-7.4,3.34-14.14,8.71-18.95,5.11-4.64,12.17-7.52,19.87-7.52s14.74,2.88,19.88,7.48c5.35,4.83,8.69,11.57,8.69,18.99v30.94c0,2.88,1.37,5.57,3.56,7.54,2.41,2.19,5.81,3.56,9.59,3.56s7.16-1.37,9.57-3.56c2.21-1.97,3.58-4.67,3.58-7.54v-30.94c0-7.42,3.34-14.16,8.69-18.99,5.11-4.6,12.17-7.48,19.88-7.48s14.74,2.88,19.87,7.48c5.35,4.83,8.67,11.57,8.67,18.99v30.94c0,2.88,1.39,5.57,3.58,7.54,2.41,2.19,5.81,3.56,9.57,3.56s7.18-1.37,9.59-3.56c2.21-1.95,3.58-4.64,3.58-7.54v-15.65h0ZM128.52,91.11h13.8c4.26,0,7.7,3.46,7.7,7.72s-3.44,7.68-7.7,7.68h-13.8v2.6c0,1.35.44,2.63,1.17,3.68h0l.12.12v.02l.08.1.5.56c1.15,1.13,2.74,1.85,4.49,1.85h62.43c1.75,0,3.36-.72,4.5-1.85,1.13-1.15,1.85-2.74,1.85-4.48v-2.6h-35.96c-4.26,0-7.71-3.46-7.71-7.68s3.44-7.72,7.71-7.72h35.96v-16.17c0-1.75-.73-3.36-1.85-4.51-1.14-1.13-2.75-1.85-4.5-1.85h-62.43c-1.75,0-3.34.73-4.49,1.85-1.15,1.15-1.87,2.75-1.87,4.51v16.17Z"/>
  <path class="cls-6" d="M183.71,251.7c-5.13,4.63-12.19,7.48-19.87,7.48s-14.76-2.86-19.87-7.48c-5.35-4.81-8.69-11.54-8.69-18.99v-30.94c0-2.86-1.37-5.55-3.58-7.52-2.42-2.19-5.81-3.54-9.58-3.54s-7.18,1.35-9.59,3.54c-2.21,1.93-3.6,4.63-3.6,7.52v30.94c0,7.44-3.32,14.16-8.67,18.99-5.13,4.63-12.17,7.48-19.87,7.48s-14.74-2.86-19.88-7.48c-5.32-4.81-8.67-11.54-8.67-18.99v-30.94c0-2.89-1.39-5.59-3.58-7.54-1.53-1.39-3.46-2.43-5.68-3.02-10.86,19.75-17.05,42.46-17.05,66.64,0,2.41.04,4.79.16,7.18,3.9-1.87,8.35-2.91,12.99-2.91,7.69,0,14.72,2.86,19.88,7.48,5.35,4.83,8.67,11.55,8.67,18.99v30.94c0,2.86,1.39,5.57,3.58,7.54,2.39,2.17,5.81,3.54,9.57,3.54s7.18-1.37,9.59-3.52c2.17-1.97,3.56-4.69,3.56-7.56v-30.94c0-7.4,3.34-14.16,8.71-18.95,5.11-4.67,12.17-7.52,19.87-7.52s14.74,2.86,19.88,7.48c5.35,4.83,8.69,11.55,8.69,18.99v30.94c0,2.86,1.37,5.57,3.58,7.54,2.39,2.17,5.79,3.54,9.57,3.54s7.16-1.37,9.57-3.54c2.2-1.97,3.58-4.69,3.58-7.54v-30.94c0-7.44,3.34-14.16,8.69-18.99,5.11-4.63,12.15-7.48,19.88-7.48s14.74,2.86,19.87,7.48c5.35,4.83,8.69,11.55,8.69,18.99v30.94c0,2.86,1.37,5.57,3.56,7.54,2.41,2.17,5.81,3.54,9.57,3.54s7.18-1.37,9.59-3.54c2.21-1.95,3.58-4.65,3.58-7.54v-30.94c0-7.44,3.34-14.16,8.69-18.99,5.13-4.63,12.19-7.48,19.87-7.48,4.64,0,9.07,1.05,12.97,2.91.12-2.39.18-4.77.18-7.18,0-24.18-6.2-46.86-17.04-66.62-2.19.58-4.14,1.65-5.67,3.02-2.23,1.97-3.6,4.64-3.6,7.52v30.94c0,7.4-3.34,14.14-8.69,18.95-5.13,4.67-12.21,7.52-19.89,7.52s-14.74-2.86-19.85-7.48c-5.35-4.81-8.69-11.54-8.69-18.99v-30.94c0-2.86-1.37-5.55-3.58-7.52-2.41-2.19-5.83-3.54-9.57-3.54s-7.18,1.35-9.6,3.54c-2.19,1.97-3.56,4.66-3.56,7.52v30.94c0,7.44-3.34,14.18-8.69,18.99Z"/>
  <path class="cls-7" d="M58.48,182.79c-2.19-1.97-4.75-3.64-7.56-4.89l2.37-3.2.28-.42c16.94-22.31,40.53-39.34,67.8-48.13,3.72,2.96,8.43,4.71,13.49,4.71h62.43c4.47,0,8.61-1.35,12.07-3.66,26.69,9.29,49.7,26.55,66.09,48.96l1.28,1.75c-2.81,1.25-5.35,2.9-7.56,4.85-5.41,4.83-8.77,11.58-8.77,19.02v30.94c0,2.9-1.37,5.59-3.58,7.54-2.41,2.19-5.81,3.56-9.59,3.56s-7.16-1.37-9.57-3.56c-2.19-1.97-3.56-4.67-3.56-7.54v-30.94c0-7.42-3.34-14.16-8.69-18.99-5.13-4.6-12.19-7.48-19.87-7.48s-14.76,2.88-19.88,7.48c-5.35,4.83-8.69,11.57-8.69,18.99v30.94c0,2.88-1.38,5.57-3.58,7.54-2.41,2.19-5.83,3.56-9.57,3.56s-7.18-1.37-9.57-3.56c-2.21-1.97-3.58-4.67-3.58-7.54v-30.94c0-7.42-3.34-14.16-8.69-18.99-5.13-4.6-12.19-7.48-19.88-7.48s-14.76,2.88-19.87,7.52c-5.37,4.81-8.71,11.55-8.71,18.95v30.94c0,2.9-1.39,5.59-3.56,7.56-2.41,2.17-5.83,3.54-9.59,3.54s-7.18-1.37-9.57-3.56c-2.2-1.97-3.58-4.67-3.58-7.54v-30.94c0-7.42-3.34-14.16-8.75-18.99ZM296.39,279.46c-2.07-1.25-4.63-1.95-7.4-1.95-3.76,0-7.16,1.37-9.58,3.52-2.21,2.01-3.58,4.69-3.58,7.56v30.94c0,7.4-3.34,14.14-8.69,18.95-5.13,4.67-12.21,7.52-19.89,7.52s-14.74-2.86-19.85-7.48c-5.35-4.83-8.69-11.55-8.69-18.99v-30.94c0-2.86-1.37-5.55-3.58-7.54-2.41-2.17-5.83-3.54-9.57-3.54s-7.18,1.37-9.6,3.54c-2.19,1.99-3.56,4.69-3.56,7.54v30.94c0,7.44-3.34,14.16-8.69,18.99-5.13,4.63-12.19,7.48-19.87,7.48s-14.76-2.86-19.87-7.48c-5.35-4.83-8.69-11.55-8.69-18.99v-30.94c0-2.86-1.37-5.55-3.58-7.54-2.42-2.17-5.81-3.54-9.58-3.54s-7.18,1.37-9.59,3.54c-2.21,1.95-3.6,4.65-3.6,7.54v30.94c0,7.44-3.32,14.16-8.67,18.99-5.13,4.63-12.17,7.48-19.87,7.48s-14.74-2.86-19.88-7.48c-5.32-4.83-8.67-11.55-8.67-18.99v-30.94c0-2.86-1.39-5.55-3.58-7.54-2.42-2.17-5.83-3.54-9.58-3.54-2.61,0-5.02.62-7.04,1.71l-.38.24c-1.41.84-2.62,1.85-3.56,3.02,5.11,28.34,18.83,53.68,38.32,73.17,25.02,25.02,59.59,40.51,97.81,40.51s72.79-15.49,97.81-40.51c19.49-19.49,33.21-44.84,38.3-73.17-.95-1.16-2.15-2.19-3.56-3.02Z"/>
  <path class="cls-8" d="M58.48,182.79c-2.19-1.97-4.75-3.64-7.56-4.89l2.37-3.2.28-.42c16.94-22.31,40.53-39.34,67.8-48.13,3.72,2.96,8.43,4.71,13.49,4.71h62.43c4.47,0,8.61-1.35,12.07-3.66,26.69,9.29,49.7,26.55,66.09,48.96l1.28,1.75c-2.81,1.25-5.35,2.9-7.56,4.85-5.41,4.83-8.77,11.58-8.77,19.02v30.94c0,2.9-1.37,5.59-3.58,7.54-2.41,2.19-5.81,3.56-9.59,3.56s-7.16-1.37-9.57-3.56c-2.19-1.97-3.56-4.67-3.56-7.54v-30.94c0-7.42-3.34-14.16-8.69-18.99-5.13-4.6-12.19-7.48-19.87-7.48s-14.76,2.88-19.88,7.48c-5.35,4.83-8.69,11.57-8.69,18.99v30.94c0,2.88-1.38,5.57-3.58,7.54-2.41,2.19-5.83,3.56-9.57,3.56s-7.18-1.37-9.57-3.56c-2.21-1.97-3.58-4.67-3.58-7.54v-30.94c0-7.42-3.34-14.16-8.69-18.99-5.13-4.6-12.19-7.48-19.88-7.48s-14.76,2.88-19.87,7.52c-5.37,4.81-8.71,11.55-8.71,18.95v30.94c0,2.9-1.39,5.59-3.56,7.56-2.41,2.17-5.83,3.54-9.59,3.54s-7.18-1.37-9.57-3.56c-2.2-1.97-3.58-4.67-3.58-7.54v-30.94c0-7.42-3.34-14.16-8.75-18.99ZM296.39,279.46c-2.07-1.25-4.63-1.95-7.4-1.95-3.76,0-7.16,1.37-9.58,3.52-2.21,2.01-3.58,4.69-3.58,7.56v30.94c0,7.4-3.34,14.14-8.69,18.95-5.13,4.67-12.21,7.52-19.89,7.52s-14.74-2.86-19.85-7.48c-5.35-4.83-8.69-11.55-8.69-18.99v-30.94c0-2.86-1.37-5.55-3.58-7.54-2.41-2.17-5.83-3.54-9.57-3.54s-7.18,1.37-9.6,3.54c-2.19,1.99-3.56,4.69-3.56,7.54v30.94c0,7.44-3.34,14.16-8.69,18.99-5.13,4.63-12.19,7.48-19.87,7.48s-14.76-2.86-19.87-7.48c-5.35-4.83-8.69-11.55-8.69-18.99v-30.94c0-2.86-1.37-5.55-3.58-7.54-2.42-2.17-5.81-3.54-9.58-3.54s-7.18,1.37-9.59,3.54c-2.21,1.95-3.6,4.65-3.6,7.54v30.94c0,7.44-3.32,14.16-8.67,18.99-5.13,4.63-12.17,7.48-19.87,7.48s-14.74-2.86-19.88-7.48c-5.32-4.83-8.67-11.55-8.67-18.99v-30.94c0-2.86-1.39-5.55-3.58-7.54-2.42-2.17-5.83-3.54-9.58-3.54-2.61,0-5.02.62-7.04,1.71l-.38.24c-1.41.84-2.62,1.85-3.56,3.02,5.11,28.34,18.83,53.68,38.32,73.17,25.02,25.02,59.59,40.51,97.81,40.51s72.79-15.49,97.81-40.51c19.49-19.49,33.21-44.84,38.3-73.17-.95-1.16-2.15-2.19-3.56-3.02Z"/>
  <path class="cls-3" d="M183.71,251.7c-5.13,4.63-12.19,7.48-19.87,7.48s-14.76-2.86-19.87-7.48c-5.35-4.81-8.69-11.54-8.69-18.99v-30.94c0-2.86-1.37-5.55-3.58-7.52-2.42-2.19-5.81-3.54-9.58-3.54s-7.18,1.35-9.59,3.54c-2.21,1.93-3.6,4.63-3.6,7.52v30.94c0,7.44-3.32,14.16-8.67,18.99-5.13,4.63-12.17,7.48-19.87,7.48s-14.74-2.86-19.88-7.48c-5.32-4.81-8.67-11.54-8.67-18.99v-30.94c0-2.89-1.39-5.59-3.58-7.54-1.53-1.39-3.46-2.43-5.68-3.02-10.86,19.75-17.05,42.46-17.05,66.64,0,2.41.04,4.79.16,7.18,3.9-1.87,8.35-2.91,12.99-2.91,7.69,0,14.72,2.86,19.88,7.48,5.35,4.83,8.67,11.55,8.67,18.99v30.94c0,2.86,1.39,5.57,3.58,7.54,2.39,2.17,5.81,3.54,9.57,3.54s7.18-1.37,9.59-3.52c2.17-1.97,3.56-4.69,3.56-7.56v-30.94c0-7.4,3.34-14.16,8.71-18.95,5.11-4.67,12.17-7.52,19.87-7.52s14.74,2.86,19.88,7.48c5.35,4.83,8.69,11.55,8.69,18.99v30.94c0,2.86,1.37,5.57,3.58,7.54,2.39,2.17,5.79,3.54,9.57,3.54s7.16-1.37,9.57-3.54c2.2-1.97,3.58-4.69,3.58-7.54v-30.94c0-7.44,3.34-14.16,8.69-18.99,5.11-4.63,12.15-7.48,19.88-7.48s14.74,2.86,19.87,7.48c5.35,4.83,8.69,11.55,8.69,18.99v30.94c0,2.86,1.37,5.57,3.56,7.54,2.41,2.17,5.81,3.54,9.57,3.54s7.18-1.37,9.59-3.54c2.21-1.95,3.58-4.65,3.58-7.54v-30.94c0-7.44,3.34-14.16,8.69-18.99,5.13-4.63,12.19-7.48,19.87-7.48,4.64,0,9.07,1.05,12.97,2.91.12-2.39.18-4.77.18-7.18,0-24.18-6.2-46.86-17.04-66.62-2.19.58-4.14,1.65-5.67,3.02-2.23,1.97-3.6,4.64-3.6,7.52v30.94c0,7.4-3.34,14.14-8.69,18.95-5.13,4.67-12.21,7.52-19.89,7.52s-14.74-2.86-19.85-7.48c-5.35-4.81-8.69-11.54-8.69-18.99v-30.94c0-2.86-1.37-5.55-3.58-7.52-2.41-2.19-5.83-3.54-9.57-3.54s-7.18,1.35-9.6,3.54c-2.19,1.97-3.56,4.66-3.56,7.52v30.94c0,7.44-3.34,14.18-8.69,18.99Z"/>
  <path class="cls-5" d="M167.7,91.11h35.96v-16.17c0-1.75-.73-3.36-1.85-4.51-1.17-1.13-2.75-1.85-4.5-1.85h-62.43c-1.75,0-3.34.73-4.49,1.85-1.15,1.15-1.87,2.75-1.87,4.51v16.17h13.8c4.26,0,7.7,3.46,7.7,7.7s-3.44,7.71-7.7,7.71h-13.8v2.6c0,1.35.44,2.63,1.17,3.68l.12.14.08.1.5.56c1.15,1.13,2.74,1.85,4.49,1.85h62.43c1.75,0,3.34-.72,4.5-1.85,1.13-1.15,1.85-2.74,1.85-4.48v-2.6h-35.96c-4.26,0-7.71-3.46-7.71-7.71s3.44-7.7,7.71-7.7Z"/>
  <path class="cls-2" d="M108.93,151.82l-5.15,3.38-5.03,3.58c-2.61,1.97-6.31,1.41-8.25-1.19-1.97-2.62-1.43-6.32,1.19-8.27l5.39-3.88,5.57-3.64c2.74-1.75,6.4-.92,8.15,1.85,1.75,2.77.91,6.44-1.87,8.17Z"/>
  <g>
    <path class="cls-1" d="M27.71,282.48c.95-1.16,2.15-2.17,3.56-3.02l.38-.24c2.01-1.09,4.43-1.71,7.04-1.71,3.74,0,7.16,1.37,9.58,3.54,2.19,1.99,3.58,4.69,3.58,7.54v30.94c0,7.44,3.34,14.16,8.67,18.99,5.13,4.63,12.19,7.48,19.88,7.48s14.74-2.86,19.87-7.48c5.35-4.83,8.67-11.55,8.67-18.99v-30.94c0-2.89,1.39-5.59,3.6-7.54,2.41-2.17,5.81-3.54,9.59-3.54s7.16,1.37,9.58,3.54c2.21,1.99,3.58,4.69,3.58,7.54v30.94c0,7.44,3.34,14.16,8.69,18.99,5.11,4.63,12.17,7.48,19.87,7.48s14.74-2.86,19.87-7.48c5.35-4.83,8.69-11.55,8.69-18.99v-30.94c0-2.86,1.37-5.55,3.56-7.54,2.42-2.17,5.81-3.54,9.6-3.54s7.16,1.37,9.57,3.54c2.21,1.99,3.58,4.69,3.58,7.54v30.94c0,4.06,1.02,7.89,2.8,11.34,28.12-24.51,45.91-60.56,45.91-100.79,0-12.91-1.86-25.38-5.28-37.19-1.09,2.79-1.71,5.78-1.71,8.9v30.94c0,2.9-1.37,5.59-3.58,7.54-2.41,2.19-5.81,3.56-9.59,3.56s-7.16-1.37-9.57-3.56c-2.19-1.97-3.56-4.67-3.56-7.54v-30.94c0-7.42-3.34-14.16-8.69-18.99-5.13-4.6-12.19-7.48-19.87-7.48s-14.76,2.88-19.88,7.48c-5.35,4.83-8.69,11.57-8.69,18.99v30.94c0,2.88-1.38,5.57-3.58,7.54-2.41,2.19-5.83,3.56-9.57,3.56s-7.18-1.37-9.57-3.56c-2.21-1.97-3.58-4.67-3.58-7.54v-30.94c0-7.42-3.34-14.16-8.69-18.99-5.13-4.6-12.19-7.48-19.88-7.48s-14.76,2.88-19.87,7.52c-5.37,4.81-8.71,11.55-8.71,18.95v30.94c0,2.9-1.39,5.59-3.56,7.56-2.41,2.17-5.83,3.54-9.59,3.54s-7.18-1.37-9.57-3.56c-2.2-1.97-3.58-4.67-3.58-7.54v-30.94c0-7.42-3.34-14.16-8.75-18.99-2.19-1.97-4.75-3.64-7.56-4.89l2.37-3.2.28-.42c16.94-22.31,40.53-39.34,67.8-48.13,3.72,2.96,8.43,4.71,13.49,4.71h62.43c4.47,0,8.61-1.35,12.07-3.66,6.45,2.25,12.68,4.98,18.66,8.12-24.18-24.07-57.51-38.96-94.33-38.96C59.86,96.36,0,156.23,0,230.07c0,40.7,18.21,77.13,46.9,101.65-9.34-14.76-15.97-31.4-19.19-49.25Z"/>
    <path class="cls-7" d="M197.3,130.86h-62.43c-5.07,0-9.77-1.75-13.49-4.71-27.27,8.79-50.87,25.83-67.8,48.13l-.28.42-2.37,3.2c2.81,1.25,5.37,2.92,7.56,4.89,5.41,4.83,8.75,11.57,8.75,18.99v30.94c0,2.88,1.39,5.57,3.58,7.54,2.39,2.19,5.81,3.56,9.57,3.56s7.18-1.37,9.59-3.54c2.17-1.97,3.56-4.67,3.56-7.56v-30.94c0-7.4,3.34-14.14,8.71-18.95,5.11-4.64,12.17-7.52,19.87-7.52s14.74,2.88,19.88,7.48c5.35,4.83,8.69,11.57,8.69,18.99v30.94c0,2.88,1.37,5.57,3.58,7.54,2.39,2.19,5.79,3.56,9.57,3.56s7.16-1.37,9.57-3.56c2.2-1.97,3.58-4.67,3.58-7.54v-30.94c0-7.42,3.34-14.16,8.69-18.99,5.11-4.6,12.15-7.48,19.88-7.48s14.74,2.88,19.87,7.48c5.35,4.83,8.69,11.57,8.69,18.99v30.94c0,2.88,1.37,5.57,3.56,7.54,2.41,2.19,5.81,3.56,9.57,3.56s7.18-1.37,9.59-3.56c2.21-1.95,3.58-4.64,3.58-7.54v-30.94c0-3.12.62-6.11,1.71-8.9-6.38-22.06-18.26-41.79-34.1-57.56-5.98-3.14-12.21-5.87-18.66-8.12-3.46,2.31-7.6,3.66-12.07,3.66Z"/>
    <path class="cls-7" d="M218.71,304.26v-15.67c0-2.86-1.37-5.55-3.58-7.54-2.41-2.17-5.83-3.54-9.57-3.54s-7.18,1.37-9.6,3.54c-2.19,1.99-3.56,4.69-3.56,7.54v30.94c0,7.44-3.34,14.16-8.69,18.99-5.13,4.63-12.19,7.48-19.87,7.48s-14.76-2.86-19.87-7.48c-5.35-4.83-8.69-11.55-8.69-18.99v-30.94c0-2.86-1.37-5.55-3.58-7.54-2.42-2.17-5.81-3.54-9.58-3.54s-7.18,1.37-9.59,3.54c-2.21,1.95-3.6,4.65-3.6,7.54v30.94c0,7.44-3.32,14.16-8.67,18.99-5.13,4.63-12.17,7.48-19.87,7.48s-14.74-2.86-19.88-7.48c-5.32-4.83-8.67-11.55-8.67-18.99v-30.94c0-2.86-1.39-5.55-3.58-7.54-2.42-2.17-5.83-3.54-9.58-3.54-2.61,0-5.02.62-7.04,1.71l-.38.24c-1.41.84-2.62,1.85-3.56,3.02,3.22,17.84,9.86,34.49,19.19,49.25,23.36,19.97,53.66,32.05,86.81,32.05s64.3-12.43,87.8-32.91c-1.77-3.44-2.8-7.27-2.8-11.34v-15.27Z"/>
  </g>
  <path class="cls-6" d="M234.12,304.06v14.25c15.9-18.08,26.98-40.47,31.28-65.21-4.93,3.8-11.3,6.08-18.15,6.08-7.68,0-14.74-2.86-19.85-7.48-5.35-4.81-8.69-11.54-8.69-18.99v-30.94c0-2.86-1.37-5.55-3.58-7.52-2.41-2.19-5.83-3.54-9.57-3.54s-7.18,1.35-9.6,3.54c-2.19,1.97-3.56,4.66-3.56,7.52v30.94c0,7.44-3.34,14.18-8.69,18.99-5.13,4.63-12.19,7.48-19.87,7.48s-14.76-2.86-19.87-7.48c-5.35-4.81-8.69-11.54-8.69-18.99v-30.94c0-2.86-1.37-5.55-3.58-7.52-2.42-2.19-5.81-3.54-9.58-3.54s-7.18,1.35-9.59,3.54c-2.21,1.93-3.6,4.63-3.6,7.52v30.94c0,7.44-3.32,14.16-8.67,18.99-5.13,4.63-12.17,7.48-19.87,7.48s-14.74-2.86-19.88-7.48c-5.32-4.81-8.67-11.54-8.67-18.99v-30.94c0-2.89-1.39-5.59-3.58-7.54-1.53-1.39-3.46-2.43-5.68-3.02-10.86,19.75-17.05,42.46-17.05,66.64,0,2.41.04,4.79.16,7.18,3.9-1.87,8.35-2.91,12.99-2.91,7.69,0,14.72,2.86,19.88,7.48,5.35,4.83,8.67,11.55,8.67,18.99v30.94c0,2.86,1.39,5.57,3.58,7.54,2.39,2.17,5.81,3.54,9.57,3.54s7.18-1.37,9.59-3.52c2.17-1.97,3.56-4.69,3.56-7.56v-30.94c0-7.4,3.34-14.16,8.71-18.95,5.11-4.67,12.17-7.52,19.87-7.52s14.74,2.86,19.88,7.48c5.35,4.83,8.69,11.55,8.69,18.99v30.94c0,2.86,1.37,5.57,3.58,7.54,2.39,2.17,5.79,3.54,9.57,3.54s7.16-1.37,9.57-3.54c2.2-1.97,3.58-4.69,3.58-7.54v-30.94c0-7.44,3.34-14.16,8.69-18.99,5.11-4.63,12.15-7.48,19.88-7.48s14.74,2.86,19.87,7.48c5.35,4.83,8.69,11.55,8.69,18.99v15.47Z"/>
</svg>