<?xml version="1.0" encoding="UTF-8"?>
<svg id="Camada_1" data-name="Camada 1" xmlns="http://www.w3.org/2000/svg" viewBox="0 0 315.46 326.07">
  <defs>
    <style>
      .cls-1 {
        fill: #fff;
      }

      .cls-1, .cls-2, .cls-3, .cls-4, .cls-5 {
        fill-rule: evenodd;
      }

      .cls-2, .cls-6 {
        fill: #437a36;
      }

      .cls-3 {
        fill: #4d291f;
      }

      .cls-7, .cls-4 {
        fill: #c1171a;
      }

      .cls-5 {
        fill: #279347;
      }
    </style>
  </defs>
  <path class="cls-4" d="M178.31,71.6v86.43h-41.14v-85.05c3.56-2.38,7.05-4.83,10.44-7.23l21.46-.62c2.97,2.15,6.08,4.34,9.25,6.47Z"/>
  <path class="cls-5" d="M122.75,81.6v76.43H22.36c-4.13.33-4.63-.76-6.06-2.19-3.99-4-2.81-1.78-1.87-9.28v-70.6c0-4.38,3.56-7.94,7.94-7.94h53.52c7.27,25.68,28.14,23.26,46.87,13.58h0ZM192.76,80.51c19.13,10.42,41.32,14.29,48.9-12.49h51.44c4.38,0,7.94,3.54,7.94,7.94v74.12c0,9.27-10.05,7.96-15.36,7.96h-92.92v-77.52Z"/>
  <path class="cls-4" d="M157.73,53.6c-8.41,0-12.47-10.16-6.64-16.03,6.33-6.06,16.53-4.91,19,.28,2.66,5.66-3.03,15.75-12.35,15.75Z"/>
  <path class="cls-4" d="M210.35,44.21c0-10.18-15.2-3.65-29.75-3.65-.35-1.1-.94-5.73-1.45-6.74,19.23-13.66,35.12-27.76,43.68-22.52,5.22,3.19,7.14,16.42,7.12,33.09-.02,41.54-17.12,34.15-50.8,10.22.49-1.01,1.1-6.61,1.45-7.7,14.5,0,29.75,7.47,29.75-2.7Z"/>
  <rect class="cls-7" x="137.17" y="172.45" width="41.14" height="139.19"/>
  <path class="cls-5" d="M192.76,311.64v-139.19h85.89v132.41c0,3.77-3.01,6.78-6.79,6.78h-79.1Z"/>
  <rect class="cls-6" x="192.76" y="172.45" width="85.89" height="16.36"/>
  <path class="cls-5" d="M122.75,172.45v139.19H43.62c-3.79,0-6.8-3.01-6.8-6.78v-132.41h85.92ZM62.31,217.11c0-9.5-14.43-9.5-14.43,0v64.74c0,9.5,14.43,9.5,14.43,0v-64.74Z"/>
  <path class="cls-2" d="M122.75,172.45v16.36H36.82v-16.36h85.92Z"/>
  <path class="cls-4" d="M85.45,64.78c-2.34-30.45.16-52.38,12.04-54.38,8.33-1.41,22.73,8.99,39.38,22.32-.76,1.37,3.89,7.86,3.42,9.34-13.33,0-26.46-5.4-22.6,3.83,1.11,2.66,4.03,2.15,17.34,2.15.47,1.49,7.64,6.1,8.38,7.46-18,12.7-52.75,35.96-57.97,9.26Z"/>
  <path class="cls-3" d="M88.85,60.26c-.04-.53-.11-1-.27-1.47-1.96-11.92-2.9-44.37,11.37-44.37,9.77,0,24.04,9.23,36.92,18.3-.76,1.37-1.37,2.78-1.83,4.26h-20.62c-3.99,0-7.23,3.24-7.23,7.23s3.25,7.19,7.23,7.19h20.62c.47,1.51,1.07,2.93,1.82,4.28-3.4,2.41-6.92,4.83-10.39,7.1l-.82.51c-9.4,6-18.69,10.71-25.68,10.71-5.1,0-9.15-3.71-11.1-13.74h0ZM62.31,217.11c0-3.98-3.22-7.23-7.19-7.23s-7.23,3.24-7.23,7.23v64.74c0,3.98,3.25,7.21,7.23,7.21s7.19-3.23,7.19-7.21v-64.74h0ZM180.4,51.41h22.73c3.97,0,7.21-3.22,7.21-7.19s-3.24-7.23-7.21-7.23h-22.71c-.35-1.1-.76-2.15-1.27-3.17,13.25-9.42,28.27-19.39,38.43-19.39,7.23,0,12.35,7.43,12.37,29.59v.37c-.02,5.75-.35,10.49-1,14.4-.16.47-.24.94-.27,1.47-1.96,10.03-6.01,13.74-11.1,13.74-10.18,0-25.18-9.97-38.43-19.39.49-1.01.9-2.11,1.25-3.21h0ZM169.07,65.13c2.97,2.15,6.08,4.34,9.25,6.47v86.43h-41.14v-85.05c3.56-2.38,7.05-4.83,10.44-7.23,3.09,1.45,6.51,2.27,10.12,2.27,4.11,0,7.96-1.05,11.34-2.89h0ZM192.76,80.51v77.52h100.35c4.4,0,7.94-3.58,7.94-7.96v-74.12c0-4.4-3.56-7.94-7.94-7.94h-51.44c-4.22,14.89-13,20.41-24.08,20.41-7.72,0-16.26-3.24-24.83-7.92h0ZM244.05,53.6c.19-2.82.31-5.83.33-9.01v-.76c-.1-32.8-11.16-43.82-26.8-43.82s-33.15,12.32-48.51,23.3c-3.38-1.83-7.23-2.89-11.34-2.89-3.62,0-7.04.82-10.12,2.27C132.44,11.87,114.69,0,99.95,0c-26.11,0-28.11,32.66-26.46,53.6H22.36c-6.14,0-11.73,2.5-15.78,6.55-4.08,4.04-6.58,9.64-6.58,15.81v74.12c0,6.14,2.5,11.73,6.56,15.8,4.03,4.06,9.66,6.58,15.79,6.58h.04v132.41c0,5.81,2.39,11.12,6.22,14.95,3.87,3.86,9.19,6.26,15.01,6.26h228.23c5.81,0,11.13-2.39,14.96-6.22,3.87-3.87,6.25-9.19,6.25-14.99v-132.41h.04c6.16,0,11.77-2.52,15.81-6.56l.41-.45c3.79-4.03,6.14-9.44,6.14-15.37v-74.12c0-6.17-2.5-11.77-6.55-15.81l-.45-.41c-4.03-3.79-9.44-6.14-15.37-6.14h-49.06ZM122.75,81.6c-7.88,4.09-15.68,6.82-22.79,6.82-11.06,0-19.86-5.51-24.08-20.41H22.36c-4.38,0-7.94,3.56-7.94,7.94v74.12c0,2.19.9,4.21,2.32,5.63,1.42,1.42,3.44,2.32,5.61,2.32h100.39v-76.43h0ZM151.09,37.57l.41-.39.02-.02.06-.06.05-.04.04-.04.08-.06h.02l.06-.06.08-.04.02-.04.1-.08h0l.08-.06c1.56-1.15,3.52-1.86,5.63-1.86,2.46,0,4.69.94,6.37,2.46l.27.28c1.68,1.68,2.73,4.06,2.73,6.64s-1.05,4.93-2.73,6.63-4.04,2.76-6.65,2.76c-2.11,0-4.07-.69-5.63-1.84h0l-.08-.08h0l-.54-.43-.12-.11-.27-.28c-1.64-1.64-2.66-3.91-2.73-6.41v-.49c.08-2.48,1.09-4.75,2.73-6.39h0ZM137.17,311.64v-139.19h41.14v139.19h-41.14ZM192.76,311.64v-139.19h85.89v132.41c0,3.77-3.01,6.78-6.79,6.78h-79.1ZM122.75,172.45v139.19H43.62c-3.79,0-6.8-3.01-6.8-6.78v-132.41h85.92Z"/>
  <path class="cls-1" d="M55.12,204.23c4.3,0,6.18-2.4,6.88-5.34.63-2.66.31-.98.31-3.11,0-.8-.1-1.54-.29-2.21-1.86-6.55-11.98-6.53-13.82,0-.2.66-.31,1.41-.31,2.21,0,2.1-.21.35.39,2.99.68,2.97,2.46,5.45,6.84,5.45Z"/>
  <path class="cls-1" d="M62.31,217.11c0-9.5-14.43-9.5-14.43,0v64.74c0,9.5,14.43,9.5,14.43,0v-64.74Z"/>
</svg>