<?xml version="1.0" encoding="UTF-8"?>
<svg id="Camada_1" data-name="Camada 1" xmlns="http://www.w3.org/2000/svg" viewBox="0 0 241.3 405.81">
  <defs>
    <style>
      .cls-1 {
        fill: #fff;
      }

      .cls-1, .cls-2, .cls-3, .cls-4, .cls-5, .cls-6 {
        fill-rule: evenodd;
      }

      .cls-2 {
        fill: #437a36;
      }

      .cls-3 {
        fill: #4d291f;
      }

      .cls-7, .cls-5 {
        fill: #d57b18;
      }

      .cls-4, .cls-8 {
        fill: #deb628;
      }

      .cls-6 {
        fill: #279347;
      }
    </style>
  </defs>
  <path class="cls-3" d="M116.03,0l-10.05,21.41-23.49,2.94c-2.79.35-4.78,2.91-4.44,5.68.14,1.31.77,2.43,1.68,3.22l17.16,16.08-4.45,23.25c-.51,2.75,1.3,5.45,4.04,5.97,1.23.23,2.43,0,3.43-.54l15.63-8.6v6.6c-1.09.57-2.14,1.35-3.03,2.34l-14.76,16.03-.1.07-.07.1-.08.1-16.22,17.59-.08.09-.09.1-19.25,20.87c-2.17,2.37-3.16,5.33-3.16,8.21,0,1.64.34,3.28.97,4.83.65,1.54,1.61,2.98,2.88,4.15,1.92,1.77,4.47,2.89,7.46,2.89h8.96l-22.85,24.78-.08.1-.09.08-.08.09-.07.1-21.92,23.77c-2.81,3.05-4.11,6.88-4.11,10.62,0,2.15.44,4.28,1.27,6.27.84,2.02,2.09,3.87,3.71,5.36,2.45,2.26,5.69,3.7,9.51,3.7h21.49l-29.39,31.88-.08.09-.09.1-.08.09-.09.08-30.98,33.62c-3.46,3.74-5.03,8.48-5.03,13.12,0,2.67.53,5.32,1.54,7.79,1.04,2.48,2.59,4.76,4.55,6.58,3.02,2.75,6.95,4.49,11.63,4.49h83.17v43.97h-19.66c-8.43,0-16.1,3.46-21.64,9-5.52,5.52-8.97,13.15-9.01,21.54v.1c0,2.84,2.29,5.12,5.12,5.12h129.88c2.81,0,5.11-2.28,5.11-5.11,0-8.44-3.46-16.11-8.99-21.66-5.56-5.54-13.23-9-21.65-9h-19.67v-43.97h83.18c4.68,0,8.63-1.73,11.61-4.49,1.97-1.82,3.51-4.08,4.56-6.58,1.03-2.47,1.57-5.12,1.57-7.81,0-4.62-1.61-9.35-5.05-13.09l-60.7-65.86h21.47c3.83,0,7.05-1.45,9.52-3.69l.31-.32c1.47-1.44,2.62-3.17,3.39-5.02.82-1.99,1.27-4.15,1.27-6.3,0-3.74-1.29-7.57-4.09-10.62l-6.25-6.76-.07-.09-.1-.1-.07-.09-.1-.08-38.49-41.8h8.94c2.98,0,5.51-1.12,7.45-2.89,1.27-1.13,2.24-2.59,2.89-4.15.65-1.54.99-3.19.99-4.83,0-2.88-1.03-5.82-3.18-8.18l-5.62-6.1-.07-.1-.09-.06-.08-.11-.09-.08-21.28-23.12v-.02l-.08-.07-.09-.11-.09-.08-.08-.09-23.2-25.2c-.84-.88-1.83-1.61-2.9-2.18v-6.6l15.64,8.6c2.46,1.35,5.57.44,6.91-2.02.6-1.08.76-2.28.53-3.41l-4.44-23.25,17.28-16.2c2.04-1.93,2.14-5.15.21-7.21-.86-.89-1.95-1.4-3.09-1.56l-23.49-2.96L125.24,0"/>
  <path class="cls-3" d="M105.86,380.28h54.19c5.63,0,10.74,2.28,14.42,5.97,2.55,2.57,4.44,5.78,5.36,9.34H61.46c.94-3.56,2.81-6.77,5.36-9.31,3.7-3.69,8.8-6,14.42-6h24.62Z"/>
  <polygon class="cls-3" points="111.1 326.07 130.17 326.07 130.17 370.04 111.1 370.04 111.1 326.07 111.1 326.07"/>
  <path class="cls-3" d="M123.29,56.41l-.2-.11h0c-.73-.41-1.54-.63-2.45-.63-.96,0-1.87.28-2.65.74l-.09.06h-.01l-13.39,7.38,2.94-15.36c.31-1.64-.2-3.42-1.51-4.66l-11.4-10.7,15.48-1.93c1.68-.24,3.22-1.28,3.99-2.91l6.64-14.18,6.51,13.84c.67,1.71,2.21,3.01,4.15,3.25l15.48,1.93-11.39,10.7c-1.23,1.15-1.85,2.9-1.52,4.66l2.94,15.36-13.39-7.38h-.02l-.1-.06h0Z"/>
  <path class="cls-3" d="M120.69,84.93h.07c.51.31,6.63,6.82,14.45,15.28-3.36-.52-6.71-1.1-10.03-1.75-4.83-.94-9.61-2-14.33-3.22l9.47-10.24.38-.07h0Z"/>
  <path class="cls-3" d="M41.2,269.9l2.83,1.23,6.29,2.5c25.41,9.82,52.02,15.38,78.97,17.69,29.29,2.51,59.04,1.2,88.1-2.65l11.35,12.33c1.61,1.74,2.33,3.99,2.33,6.19,0,1.37-.26,2.71-.76,3.91-.48,1.12-1.18,2.19-2.05,2.98-1.18,1.09-2.77,1.77-4.69,1.77H17.72c-1.94,0-3.53-.68-4.71-1.77-.87-.83-1.57-1.86-2.05-3-.48-1.18-.75-2.52-.75-3.87,0-2.22.73-4.48,2.33-6.22l28.66-31.1h0Z"/>
  <path class="cls-3" d="M208.91,279.46c-26.06,3.05-52.6,3.94-78.77,1.69-26.08-2.24-51.77-7.58-76.15-17l-5.46-2.19,8.53-9.24c14.45,5.68,29.4,9.84,44.59,12.72,17.55,3.32,35.51,4.95,53.49,5.18,2.81.04,5.14-2.22,5.16-5.04.03-2.8-2.21-5.1-5.02-5.13-17.36-.24-34.76-1.82-51.75-5.03-13.29-2.53-26.37-6.06-39.04-10.75l16.47-17.91c.93-.92,1.53-2.21,1.53-3.63,0-2.81-2.29-5.1-5.12-5.1h-33.12c-1.06,0-1.95-.38-2.6-.96-.51-.44-.92-1.06-1.2-1.76-.31-.7-.46-1.52-.46-2.38,0-1.34.45-2.69,1.39-3.7l19.76-21.45c3.49,1.28,6.99,2.47,10.46,3.57l.39.1c4.62,1.45,9.2,2.79,13.72,3.96,2.72.68,5.52-.93,6.22-3.66.7-2.71-.92-5.52-3.65-6.2-4.5-1.17-8.91-2.43-13.2-3.79l-.41-.15c-2-.63-4.01-1.3-5.99-1.98l8.73-9.49c14.98,4.83,30.43,8.16,46.08,10.23,17.26,2.3,34.81,3.09,52.28,2.63l10.48,11.39c-12.46.63-24.93.7-37.29.08-14.86-.71-29.69-2.43-44.28-5.24-2.76-.54-5.45,1.28-5.96,4.04-.55,2.74,1.27,5.45,4.04,5.96,15.02,2.91,30.35,4.66,45.72,5.41,15.58.75,31.22.51,46.68-.58l4.76,5.17c.96,1.01,1.39,2.37,1.39,3.7,0,.86-.15,1.68-.46,2.38-.24.61-.6,1.18-1.03,1.59l-.17.17c-.64.58-1.54.96-2.6.96h-33.12c-1.22,0-2.47.46-3.44,1.37-2.07,1.88-2.21,5.12-.29,7.19l30.1,32.67-3.24.24c-4.67.35-9.19.58-13.51.74-2.81.08-5.02,2.45-4.93,5.26.1,2.81,2.46,5.02,5.27,4.93,4.81-.17,9.45-.43,13.87-.75,3.68-.26,7.43-.58,11.25-.96l9.92,10.75h0Z"/>
  <path class="cls-3" d="M166.47,172.92c-13.97,0-27.91-.82-41.68-2.66-13.46-1.79-26.78-4.55-39.76-8.44l9.14-9.94c.94-.92,1.53-2.19,1.53-3.63,0-2.8-2.3-5.1-5.12-5.1h-20.58c-.24,0-.44-.06-.55-.17l-.38-.54-.17-.93c0-.48.14-.96.44-1.3l17.13-18.54c12.57,4.06,25.38,7.17,38.32,9.39,14.07,2.43,28.42,3.89,42.84,4.49l4.28,4.66c.31.34.44.82.44,1.3l-.15.93-.36.53c-.1.12-.31.19-.58.19h-20.58c-1.23.02-2.47.47-3.46,1.37-2.05,1.9-2.19,5.13-.29,7.2l19.54,21.2h0Z"/>
  <path class="cls-3" d="M103.03,103.72c6.69,1.86,13.46,3.44,20.22,4.74,7.5,1.46,15.11,2.6,22.74,3.47l11.81,12.87c-10.48-.73-20.94-1.98-31.3-3.78-10.96-1.91-21.78-4.4-32.4-7.62l8.92-9.67Z"/>
  <path class="cls-5" d="M113.99,28.27l6.64-14.16,6.49,13.85c.68,1.69,2.22,3,4.16,3.24l15.48,1.93-11.39,10.7c-1.23,1.15-1.85,2.9-1.52,4.66l2.94,15.35-13.4-7.37-.1-.06-.22-.11c-.7-.41-1.54-.63-2.43-.63-.96,0-1.87.28-2.64.74l-.12.06-13.39,7.37,2.94-15.35c.31-1.64-.2-3.42-1.51-4.66l-11.4-10.7,15.48-1.93c1.68-.24,3.22-1.28,3.99-2.93Z"/>
  <path class="cls-2" d="M120.75,84.93c.51.31,6.63,6.82,14.45,15.28-3.36-.52-6.71-1.1-10.03-1.75-4.83-.94-9.61-2-14.33-3.22l9.47-10.24.38-.07h.07Z"/>
  <path class="cls-4" d="M123.25,108.46c7.5,1.48,15.11,2.6,22.74,3.47l11.81,12.87c-10.48-.73-20.94-1.98-31.3-3.78-10.96-1.91-21.78-4.4-32.4-7.62l8.92-9.67c6.69,1.86,13.46,3.44,20.22,4.74Z"/>
  <path class="cls-6" d="M50.31,273.63c25.41,9.82,52.02,15.38,78.97,17.69,29.29,2.51,59.04,1.22,88.1-2.65l11.35,12.33c1.61,1.74,2.33,3.97,2.33,6.19,0,1.37-.26,2.71-.76,3.91-.48,1.12-1.18,2.19-2.05,2.98-1.18,1.09-2.77,1.77-4.69,1.77H17.72c-1.92,0-3.53-.68-4.71-1.77-.87-.83-1.57-1.86-2.05-3-.48-1.18-.75-2.52-.75-3.89,0-2.2.73-4.45,2.33-6.19l28.66-31.1,2.83,1.23,6.29,2.5h0ZM124.8,131.06c14.07,2.43,28.42,3.89,42.84,4.49l4.28,4.66c.31.34.44.82.44,1.3l-.15.93-.36.53c-.1.12-.31.19-.58.19h-20.58c-1.23.02-2.47.47-3.44,1.37-2.07,1.9-2.21,5.13-.31,7.2l19.54,21.2c-13.97,0-27.91-.82-41.68-2.66-13.46-1.79-26.78-4.55-39.76-8.44l9.14-9.94c.94-.92,1.53-2.19,1.53-3.63,0-2.8-2.3-5.1-5.12-5.1h-20.58c-.25,0-.44-.06-.55-.17l-.38-.54-.17-.93c0-.48.14-.96.44-1.3l17.13-18.54c12.57,4.06,25.38,7.17,38.32,9.39h0ZM123.48,180.34c-15.65-2.07-31.1-5.41-46.08-10.23l-8.73,9.49c1.99.68,3.99,1.35,5.99,1.98l.41.15c4.3,1.36,8.7,2.62,13.2,3.79,2.72.68,4.35,3.49,3.65,6.2-.7,2.73-3.49,4.36-6.22,3.66-4.52-1.17-9.09-2.51-13.72-3.96l-.41-.1c-3.46-1.1-6.95-2.28-10.44-3.57l-19.76,21.45c-.92,1.01-1.39,2.37-1.39,3.7,0,.86.15,1.68.46,2.38.27.7.68,1.32,1.2,1.75.65.6,1.54.98,2.6.98h33.12c2.83,0,5.12,2.29,5.12,5.1,0,1.44-.6,2.71-1.53,3.63l-16.47,17.91c12.65,4.69,25.75,8.22,39.04,10.75,16.99,3.22,34.38,4.79,51.75,5.03,2.81.03,5.05,2.34,5.02,5.13-.02,2.81-2.35,5.08-5.16,5.04-17.98-.24-35.94-1.87-53.49-5.18-15.19-2.88-30.14-7.04-44.59-12.72l-8.53,9.24,5.46,2.19c24.39,9.42,50.07,14.76,76.15,17,26.16,2.27,52.71,1.36,78.75-1.69l-9.9-10.75c-3.82.38-7.57.7-11.25.96-4.42.31-9.06.57-13.87.75-2.81.07-5.17-2.12-5.27-4.93-.07-2.81,2.12-5.16,4.93-5.26,4.32-.15,8.82-.39,13.51-.74l3.24-.24-30.1-32.67c-1.92-2.07-1.78-5.3.29-7.19.97-.91,2.22-1.37,3.44-1.37h33.12c1.08,0,1.99-.38,2.6-.98l.17-.15c.43-.41.79-.98,1.03-1.59.31-.7.46-1.52.46-2.38,0-1.34-.43-2.69-1.39-3.7l-4.76-5.17c-15.46,1.09-31.1,1.33-46.68.58-15.37-.75-30.7-2.5-45.72-5.41-2.77-.52-4.57-3.22-4.04-5.96.51-2.77,3.2-4.58,5.96-4.04,14.59,2.81,29.42,4.53,44.28,5.24,12.36.62,24.83.53,37.29-.1l-10.48-11.38c-17.46.45-35-.34-52.28-2.63Z"/>
  <path class="cls-2" d="M188.15,291.63c9.8-.66,19.55-1.66,29.23-2.96l11.35,12.33c1.61,1.74,2.33,3.97,2.33,6.19,0,1.37-.26,2.71-.76,3.91-.48,1.12-1.18,2.19-2.05,2.98-1.18,1.09-2.77,1.77-4.69,1.77h-17.19l-18.22-24.23h0ZM128.03,131.61l20.43,40.82c5.99.35,11.99.49,18.01.49l-19.54-21.2c-1.9-2.06-1.76-5.3.31-7.2.98-.9,2.21-1.36,3.44-1.37h20.58c.28,0,.48-.06.58-.19l.36-.53.15-.93c0-.48-.13-.96-.44-1.3l-4.28-4.66c-13.3-.55-26.56-1.82-39.61-3.94h0ZM153.67,182.88l5.96,11.93c8.87.15,17.74,0,26.61-.46l-10.48-11.38c-7.36.19-14.73.16-22.09-.1h0ZM120.89,202.16l47.72,63.5-.02-.17c-.07-2.81,2.12-5.16,4.93-5.26,4.32-.15,8.82-.39,13.51-.74l3.24-.24-30.1-32.67c-1.92-2.07-1.78-5.3.29-7.19.97-.91,2.22-1.37,3.44-1.37h33.12c1.08,0,1.99-.38,2.6-.98l.17-.15c.43-.41.79-.98,1.03-1.59.31-.7.46-1.52.46-2.38,0-1.34-.43-2.69-1.39-3.7l-4.76-5.17c-15.46,1.09-31.1,1.33-46.68.58-9.23-.45-18.44-1.25-27.57-2.47h0ZM171.97,270.11l8.85,11.75c9.38-.48,18.77-1.3,28.06-2.4l-9.9-10.75c-3.82.38-7.57.7-11.25.96-4.42.31-9.06.57-13.87.75-.67.02-1.3-.1-1.9-.31Z"/>
  <rect class="cls-8" x="111.1" y="326.07" width="19.08" height="43.97"/>
  <rect class="cls-7" x="119.88" y="326.07" width="10.29" height="43.97"/>
  <path class="cls-4" d="M81.23,380.28h78.82c5.63,0,10.74,2.28,14.42,5.97,2.55,2.57,4.44,5.78,5.36,9.34H61.46c.94-3.56,2.83-6.77,5.36-9.31,3.7-3.69,8.8-6,14.42-6Z"/>
  <path class="cls-4" d="M148.94,194.45c12.36.62,24.83.53,37.29-.1l-10.48-11.38c-17.46.45-35-.34-52.28-2.63-15.65-2.07-31.1-5.41-46.08-10.23l-8.73,9.49c1.23.43,2.45.84,3.68,1.23l.12-.24c.7.34,1.44.65,2.21.95.13.07.25.14.41.17.05.03.09.03.12.07,24.28,7.63,48.01,11.4,73.73,12.67Z"/>
  <path class="cls-4" d="M101.65,265.43c-15.19-2.88-30.14-7.04-44.59-12.72l-8.53,9.24,5.46,2.19c24.39,9.42,50.07,14.76,76.15,17,26.16,2.27,52.71,1.36,78.75-1.69l-9.9-10.75c-33.89,3.35-64.03,3.03-97.34-3.27Z"/>
  <path class="cls-5" d="M198.99,268.71c-3.78.38-7.53.71-11.25.99-4.9.36-9.73.65-14.52.82l8.46,11.3c9.11-.52,18.19-1.31,27.21-2.37l-9.9-10.75Z"/>
  <path class="cls-5" d="M159.63,194.82c8.85.15,17.74,0,26.61-.46l-10.48-11.38c-7.36.19-14.73.16-22.09-.1-10.11-.38-20.19-1.2-30.19-2.54-4.42-.58-8.82-1.26-13.2-2.05,1.88,3.41,4.48,8.24,7.05,12.97,11.9,1.68,23.43,2.78,31.54,3.19h.07c3.56.17,7.12.3,10.69.36Z"/>
  <path class="cls-5" d="M126.51,121.02c10.36,1.8,20.82,3.05,31.3,3.78l-11.81-12.87c-7.64-.86-15.24-1.99-22.74-3.47-2.77-.52-5.58-1.12-8.35-1.74,2.98,5.36,5.48,9.82,7.53,13.56,1.35.25,2.71.52,4.08.74Z"/>
  <path class="cls-5" d="M141.52,386.24c2.53,2.57,4.42,5.78,5.36,9.34h32.95c-.93-3.56-2.81-6.77-5.36-9.34-3.68-3.68-8.78-5.97-14.42-5.97h-32.96c5.63,0,10.75,2.28,14.43,5.97Z"/>
  <g>
    <path class="cls-1" d="M59.59,210.69c-1.8,2.07-4.93,2.27-6.99.48-2.06-1.8-2.26-4.93-.46-6.99l37.34-42.57c1.78-2.06,4.92-2.28,6.99-.48,2.05,1.8,2.26,4.94.46,6.99l-37.34,42.57Z"/>
    <path class="cls-1" d="M90.96,136.17c-1.82,2.05-4.93,2.26-6.99.48-2.07-1.82-2.27-4.93-.48-6.99l30.04-34.26c1.81-2.05,4.93-2.26,6.99-.47,2.07,1.8,2.27,4.94.48,6.99l-30.03,34.25Z"/>
  </g>
  <g>
    <g>
      <path class="cls-3" d="M65.26,189.21l7.29-8.32,2.11.68.41.15c2.59.81,5.2,1.59,7.87,2.35l-7.42,8.45-3.56-1.1-.38-.08c-2.1-.69-4.23-1.37-6.33-2.13h0ZM81.03,171.25l7.4-8.43c3.22.9,6.44,1.74,9.69,2.53-.08.99-.48,1.97-1.18,2.77l-5.34,6.1c-3.54-.93-7.07-1.9-10.57-2.97Z"/>
      <path class="cls-3" d="M89.62,122.66l7.4-8.41c3.53,1.03,7.09,1.97,10.65,2.84l-7.54,8.6c-3.52-.93-7.02-1.96-10.52-3.03h0ZM105.62,104.42l7.53-8.59c2.98.76,5.99,1.41,9.01,2.02.22,1.4-.15,2.91-1.16,4.07l-4.52,5.14c-3.63-.79-7.24-1.68-10.85-2.64Z"/>
    </g>
    <path class="cls-1" d="M113.15,95.82l.38-.43c1.81-2.05,4.93-2.26,6.99-.47.91.79,1.46,1.81,1.64,2.92-3.01-.62-6.03-1.27-9.01-2.02Z"/>
    <path class="cls-1" d="M97.02,114.25l8.6-9.83c3.61.96,7.22,1.86,10.85,2.64l-8.8,10.03c-3.56-.87-7.12-1.82-10.65-2.84Z"/>
    <g>
      <path class="cls-1" d="M59.59,210.69c-1.8,2.07-4.93,2.27-6.99.48-2.06-1.8-2.26-4.93-.46-6.99l13.12-14.97c2.11.76,4.23,1.44,6.33,2.13l.38.08,3.56,1.1-15.94,18.17h0ZM72.55,180.89l8.48-9.64c3.49,1.07,7.02,2.04,10.57,2.97l-8.65,9.86c-2.67-.75-5.29-1.54-7.87-2.35l-.41-.15-2.11-.68h0ZM88.43,162.82l1.06-1.2c1.78-2.06,4.92-2.28,6.99-.48,1.23,1.1,1.8,2.67,1.64,4.21-3.25-.79-6.47-1.63-9.69-2.53Z"/>
      <path class="cls-1" d="M90.96,136.17c-1.82,2.05-4.93,2.26-6.99.48-2.07-1.82-2.27-4.93-.48-6.99l6.13-7c3.5,1.07,6.99,2.1,10.52,3.03l-9.18,10.48Z"/>
    </g>
    <path class="cls-1" d="M72.72,180.7l8.3-9.45c3.49,1.07,7.02,2.04,10.57,2.97l-8.65,9.86c-2.58-.72-5.15-1.49-7.74-2.29-.03-.04-.07-.04-.12-.07-.13-.03-.28-.1-.41-.17-.67-.27-1.32-.54-1.95-.84Z"/>
    <polygon class="cls-1" points="116.47 107.06 115.65 108.01 114.9 106.72 116.47 107.06"/>
  </g>
</svg>