<?xml version="1.0" encoding="UTF-8"?>
<svg id="Camada_1" data-name="Camada 1" xmlns="http://www.w3.org/2000/svg" viewBox="0 0 427.25 286.3">
  <defs>
    <style>
      .cls-1 {
        fill: #c5c5c4;
      }

      .cls-1, .cls-2, .cls-3, .cls-4, .cls-5 {
        fill-rule: evenodd;
      }

      .cls-2 {
        fill: #fff;
      }

      .cls-3 {
        fill: #4d291f;
      }

      .cls-4 {
        fill: #c1171a;
      }

      .cls-5 {
        fill: #9b191b;
      }
    </style>
  </defs>
  <path class="cls-3" d="M59.01,282.76c-2.11,1.37-14.88,8.71-30.78-2.93l-.35-.27c-8.45-6.36-19.5-20.85-24.67-35.57-4.27-12.14-4.9-24.79,2.09-34.57l.37-.49c3.22-3.86,13.02-8.76,27.17-13.63-6.89-48.8,17.12-102.83,56.78-141.58,19.79-19.37,43.61-35.01,69.41-44.3C185.07.05,213.12-2.9,241.25,3.17c49.42,10.67,98.83,49.15,137.23,129.52,11.4,2.97,21.59,8.92,29.67,16.98,11.81,11.81,19.11,28.11,19.11,46.03s-7.32,34.24-19.11,46.03c-11.76,11.79-28.04,19.09-45.99,19.09s-34.24-7.3-46.01-19.09c-11.81-11.81-19.11-28.09-19.11-46.03,0-14.52,4.8-27.99,12.91-38.85-6.5-5.33-13.57-9.07-21.06-10.93-6.25-1.56-12.95-1.83-19.95-.64,13.21,24.69,12.14,47.1,10.73,56.88l1.8,1.25.62.45c6.44,4.66,10.97,9.12,13.41,14.95l.18.51c2.34,5.89,2.26,12.49-.4,21.06-1.95,6.28-4.78,15.28-8.86,23.25-4.73,9.25-11.21,16.86-20.1,17.8-3.69.39-10.29-1.34-20.01-3.86-35.06-9.18-115.07-30.1-187.29,5.19h0ZM82.72,141.67c0-.12,3.83-35.41,52.26-74.85,3.06-2.5,3.53-7.04,1.03-10.1-2.5-3.07-7.05-3.54-10.09-1.04-53.11,43.28-57.55,84.69-57.55,84.79-.33,3.96,2.62,7.45,6.58,7.77,3.96.35,7.44-2.61,7.77-6.56h0ZM153.62,53.07l10.02-6.45c3.36-2.1,4.37-6.54,2.28-9.89-2.09-3.36-6.54-4.37-9.88-2.29l-10.29,6.58c-3.34,2.17-4.26,6.64-2.11,9.96,2.19,3.33,6.64,4.26,9.98,2.09h0ZM252.78,122.65c-.29-5.97-1.58-13.34-5.01-21.48-1.56-3.64.16-7.88,3.79-9.42,3.63-1.55,7.88.15,9.42,3.8,6.05,14.23,6.64,26.87,5.9,35.5,8.86-1.46,17.39-1.09,25.43.9,9.92,2.46,19.11,7.42,27.45,14.41,11.24-9.68,25.81-15.58,41.71-15.73-35.52-70.14-79.54-103.94-123.27-113.38-25.37-5.48-50.75-2.8-74.33,5.7-23.8,8.56-45.84,23.07-64.26,41.09-35.93,35.11-58.01,83.38-52.86,126.95,19.99-5.7,45.4-10.89,72.52-13.74,49.99-5.23,106.58-3.18,146.81,16.98.59-10.74-.89-29.24-13.9-49.03-.23-.33-.47-.67-.66-1.03-9.35-13.84-24.36-28.23-48.25-40.98-3.47-1.86-4.8-6.22-2.95-9.71,1.85-3.48,6.23-4.81,9.7-2.95,18.7,9.97,32.56,20.98,42.77,32.15h0ZM325.37,160.78l-.11.14-.14.12-.11.14v.02l-.14.12c-8.32,9.02-13.43,21.12-13.43,34.4,0,14.03,5.7,26.7,14.83,35.86,9.18,9.16,21.84,14.86,35.88,14.86s26.67-5.7,35.84-14.86c9.18-9.15,14.84-21.82,14.84-35.86s-5.66-26.68-14.82-35.84c-9.16-9.18-21.84-14.83-35.86-14.83s-26.7,5.66-35.88,14.83l-.9.92h0ZM45.19,205.54c-.86.66-1.85,1.09-2.97,1.33-.6.1-1.21.14-1.8.1-12.82,3.96-21.32,7.87-23.42,10.81-3.82,5.33-3.08,13.33-.23,21.41,4.26,12.12,12.96,23.77,19.56,28.77l.39.27c8.98,6.54,14.6,2.34,14.6,2.34l.82-.47c77.18-38,161.06-16.08,197.78-6.48,8.2,2.15,13.82,3.63,14.88,3.51,3.01-.31,6.13-4.68,8.86-10.05,3.42-6.67,6.05-15.09,7.91-20.98,1.6-5.19,1.82-8.77.82-11.44l-.16-.33c-1.23-2.93-4.2-5.66-8.55-8.84l-.55-.39c-1.58-1.11-3.2-2.21-4.86-3.24l-.67-.41c-37.24-22.9-95.53-25.32-146.87-19.93-29.53,3.1-56.45,8.55-75.54,14.01Z"/>
  <path class="cls-4" d="M251.51,144.15c-9.35-13.84-24.36-28.23-48.25-40.98-3.47-1.86-4.8-6.22-2.95-9.71,1.85-3.48,6.23-4.81,9.7-2.95,18.7,9.97,32.56,20.98,42.77,32.15-.29-5.97-1.58-13.34-5.01-21.48-1.56-3.64.16-7.88,3.79-9.42,3.63-1.55,7.88.15,9.42,3.8,6.05,14.23,6.64,26.87,5.9,35.5,8.86-1.46,17.39-1.09,25.43.9,9.92,2.46,19.11,7.42,27.45,14.41,11.24-9.68,25.81-15.58,41.71-15.73-35.52-70.14-79.54-103.94-123.27-113.38-25.37-5.48-50.75-2.8-74.33,5.7-23.8,8.56-45.84,23.07-64.26,41.09-35.93,35.11-58.01,83.38-52.86,126.95,19.99-5.7,45.4-10.89,72.52-13.74,49.99-5.23,106.58-3.18,146.81,16.98.59-10.74-.89-29.24-13.9-49.03-.23-.33-.47-.67-.66-1.03h0ZM82.72,141.67c-.33,3.94-3.81,6.91-7.77,6.56-3.96-.31-6.91-3.81-6.58-7.77,0-.1,4.43-41.51,57.55-84.79,3.04-2.5,7.59-2.03,10.09,1.04,2.5,3.06,2.03,7.6-1.03,10.1-48.43,39.44-52.26,74.73-52.26,74.85h0ZM153.62,53.07c-3.34,2.17-7.79,1.24-9.98-2.09-2.15-3.32-1.23-7.79,2.11-9.96l10.29-6.58c3.34-2.09,7.79-1.07,9.88,2.29,2.09,3.35,1.07,7.79-2.28,9.89l-10.02,6.45Z"/>
  <path class="cls-2" d="M267.6,211.45c-37.24-22.9-95.53-25.32-146.87-19.93-29.53,3.1-56.45,8.55-75.54,14.01-.86.66-1.85,1.09-2.97,1.33-.6.1-1.21.14-1.8.1-12.82,3.96-21.32,7.87-23.42,10.81-3.82,5.33-3.08,13.33-.23,21.41,4.26,12.12,12.96,23.77,19.56,28.77l.39.27c8.98,6.54,14.6,2.34,14.6,2.34l.82-.47c77.18-38,161.06-16.08,197.78-6.48,8.2,2.15,13.82,3.63,14.88,3.51,3.01-.31,6.13-4.68,8.86-10.05,3.42-6.67,6.05-15.09,7.91-20.98,1.6-5.19,1.82-8.77.82-11.44l-.16-.33c-1.23-2.93-4.2-5.66-8.55-8.84l-.55-.39c-1.58-1.11-3.2-2.21-4.86-3.24l-.67-.41Z"/>
  <path class="cls-2" d="M324.87,161.3c-8.32,9.02-13.43,21.12-13.43,34.4,0,14.03,5.7,26.7,14.83,35.86,9.18,9.16,21.84,14.86,35.88,14.86s26.67-5.7,35.84-14.86c9.18-9.15,14.84-21.82,14.84-35.86s-5.66-26.68-14.82-35.84c-9.16-9.18-21.84-14.83-35.86-14.83s-26.7,5.66-35.88,14.83l-.9.92-.11.14-.14.12-.11.16-.14.12Z"/>
  <path class="cls-2" d="M82.72,141.67c0-.12,3.83-35.41,52.26-74.85,3.06-2.5,3.53-7.04,1.03-10.1-2.5-3.07-7.05-3.54-10.09-1.04-53.11,43.28-57.55,84.69-57.55,84.79-.33,3.96,2.62,7.45,6.58,7.77,3.96.35,7.44-2.61,7.77-6.56Z"/>
  <path class="cls-2" d="M143.64,50.98c2.19,3.33,6.64,4.26,9.98,2.09l10.02-6.45c3.36-2.1,4.37-6.54,2.28-9.89-2.09-3.36-6.54-4.37-9.88-2.29l-10.29,6.58c-3.34,2.17-4.26,6.64-2.11,9.96Z"/>
  <path class="cls-5" d="M164.41,157.09c-17.98-4.18-68.12-5.04-118.16,13.63-.45,6.81-.29,13.59.49,20.26,19.99-5.7,45.4-10.89,72.52-13.74,49.99-5.23,106.58-3.18,146.81,16.98.59-10.74-.89-29.24-13.9-49.03-.23-.33-.47-.67-.66-1.03-9.35-13.84-24.36-28.23-48.25-40.98-3.47-1.86-4.8-6.22-2.95-9.71,1.85-3.48,6.23-4.81,9.7-2.95,18.7,9.97,32.56,20.98,42.77,32.15-.29-5.97-1.58-13.34-5.01-21.48-1.56-3.64.16-7.88,3.79-9.42,3.63-1.55,7.88.15,9.42,3.8,6.05,14.23,6.64,26.87,5.9,35.5,8.86-1.46,17.39-1.09,25.43.9,9.92,2.46,19.11,7.42,27.45,14.41,5.4-4.65,11.57-8.43,18.27-11.11-14.68-24.13-34.98-58.63-61.82-74.6-36.52-21.71-80.73-16.17-98.09,31.32-10.95,29.95,1.46,68.67-13.7,65.12Z"/>
  <path class="cls-1" d="M397.99,205.3c-9.17,9.18-21.86,14.86-35.84,14.86s-26.7-5.68-35.88-14.86c-6.18-6.17-10.77-13.97-13.12-22.72-1.11,4.2-1.72,8.59-1.72,13.12,0,14.03,5.7,26.7,14.83,35.86,9.18,9.16,21.84,14.86,35.88,14.86s26.67-5.7,35.84-14.86c9.18-9.15,14.84-21.82,14.84-35.86,0-4.53-.59-8.92-1.7-13.12-2.33,8.75-6.93,16.55-13.14,22.72Z"/>
  <path class="cls-1" d="M262.81,212.09c-1.84,5.9-4.49,14.33-7.91,21-2.73,5.39-5.86,9.72-8.86,10.05-1.06.12-6.68-1.35-14.87-3.5-36.7-9.6-120.6-31.54-197.78,6.48l-.82.43s-5.13,3.85-13.41-1.52c4.62,9.88,11.63,18.74,17.16,22.92l.39.27c8.98,6.54,14.6,2.34,14.6,2.34l.82-.47c77.18-38,161.06-16.08,197.78-6.48,8.2,2.15,13.82,3.63,14.88,3.51,3.01-.31,6.13-4.68,8.86-10.05,3.42-6.67,6.05-15.09,7.91-20.98,1.6-5.19,1.82-8.77.82-11.44l-.16-.33c-1.23-2.93-4.2-5.66-8.55-8.84l-.55-.39c-1.58-1.11-3.2-2.21-4.86-3.24l-.67-.41c-1.29-.8-2.62-1.58-3.98-2.32-.2.94-.47,1.91-.8,2.97Z"/>
</svg>