<?xml version="1.0" encoding="UTF-8"?>
<svg id="Camada_1" data-name="Camada 1" xmlns="http://www.w3.org/2000/svg" viewBox="0 0 366.28 366.26">
  <defs>
    <style>
      .cls-1 {
        fill: #fff;
      }

      .cls-1, .cls-2, .cls-3, .cls-4, .cls-5, .cls-6 {
        fill-rule: evenodd;
      }

      .cls-2 {
        fill: #b1d6f3;
      }

      .cls-3 {
        fill: #d2e8f9;
      }

      .cls-4 {
        fill: #4d291f;
      }

      .cls-5 {
        fill: #c49a76;
      }

      .cls-6 {
        fill: #c1171a;
      }
    </style>
  </defs>
  <path class="cls-4" d="M58.72,236.49c11.47-11.71,39.16-35.91,77.72-42.92,4.97-11.05-2.68-26.47-9.45-39.98-4.1-8.28-7.93-15.98-9.12-22.77-1.51-8.54,2.23-12.43,8.75-13.56,5.04-.89,11.75.93,17.97,2.91l-1.14-1.44c-4.1-5.08-8.84-10.99-12.75-16.8-9.35-13.85-14.75-28.07-2.59-36.27,16.15-10.9,40.69,12.05,51.82,24.03,2.06-2.36,4.48-3.95,7.16-4.63,4.46-1.15,9.07.17,13.28,4.33,4.02,4.02,7.96,11.34,11.09,22.61.1-2.76.08-5.69-.09-8.71l-.02-.17c-.77-13.38-4.42-28.64-11.47-44.02-8.2-17.83-4.08-28.7,5.69-33.23,7.01-3.19,17.02-2.34,26.98,2.17,9.29,4.23,18.91,11.73,26.05,22.1,20.31,29.49,21.44,82.48-61.06,148.68,14.19,4.46,24.52,10.75,27.66,12.79l3.87,2.13c.85.47,1.53,1.11,2.04,1.83,41.71,28.22,60.42,74.45,66.84,94.25,2.06-1.87,4.1-3.81,6.07-5.78,30.91-30.93,50.06-73.66,50.06-120.87s-19.14-89.95-50.06-120.87c-30.93-30.94-73.68-50.08-120.89-50.08S93.21,31.34,62.3,62.27c-30.94,30.91-50.08,73.68-50.08,120.87s19.14,89.93,50.08,120.87c27,27.03,63.04,45.04,103.17,49.16,1.96-10.62,8.13-20.29,11.13-24.5l-.72-4.57-.87-7.07c-.95-8.67-2.61-16.36-4.91-22.97-3.67-10.58-9.05-18.44-15.93-23.24-6.74-4.72-15.26-6.63-25.45-5.5-4.87.53-10.11,1.78-15.68,3.72-30.04,10.45-77.87-8.5-54.3-32.55h0ZM306.9,112.96c-1.68-2.89-.7-6.63,2.21-8.31,2.91-1.68,6.63-.7,8.31,2.23,6.92,11.94,12.34,24.86,15.98,38.45,3.53,13.19,5.44,27.07,5.44,41.37l-.12,5.16c-.07,3.36-2.85,5.99-6.21,5.93-3.36-.06-5.99-2.87-5.93-6.23l.07-4.86c0-13.24-1.77-26.07-5.02-38.22-3.38-12.6-8.37-24.54-14.72-35.52h0ZM286.95,86.11c-2.29-2.44-2.14-6.31.3-8.58,2.46-2.29,6.33-2.17,8.63.3l4.55,5.1,4.33,5.27c2.08,2.64,1.62,6.46-1,8.54-2.64,2.08-6.46,1.61-8.52-1l-4.06-4.91-4.23-4.72h0ZM298.8,325.12l-.11.09-.1.11-.13.08-.12.11c-31.45,25.47-71.56,40.75-115.2,40.75-50.54,0-96.33-20.48-129.47-53.62C20.52,279.49,0,233.68,0,183.14S20.52,86.79,53.67,53.65C86.81,20.5,132.6,0,183.14,0s96.37,20.5,129.52,53.65c33.14,33.14,53.62,78.93,53.62,129.49s-20.48,96.35-53.62,129.49c-4.42,4.38-9.03,8.56-13.85,12.49h0ZM287.84,318.28c-19.59,15.17-42.56,26.22-67.58,31.74l-.7-1.7c34.5-16.98,51.58-41.17,59.02-55.07,4.99,11.11,7.9,20.24,9.26,25.03h0ZM207.95,352.28c-8.07,1.19-16.36,1.8-24.81,1.8-1.83,0-3.66-.04-5.48-.11,1.57-6.99,5.61-13.62,8.08-17.21,5.61,1.11,16.85,4.63,22.22,15.51h0ZM212.89,338.04c-7.95-8.63-18.53-11.9-24.56-13.13l-.38-2.46-.85-6.76c-1.04-9.54-2.89-18.1-5.52-25.62-4.5-13-11.39-22.88-20.46-29.19-9.22-6.46-20.52-9.14-33.74-7.65-5.71.64-11.85,2.06-18.33,4.33-14.04,4.89-56.45,1.44-38.07-16.15,11.6-11.05,34.42-29.1,65.07-35.42,8.14-1.64,6.53-.81,14.83-5.89,14.81-9.05,44.93-31.4,37.28-59.55-11.79-43.53,8.67-69.73,16.09-.32.19,1.74,1.15,3.44,2.74,4.46,2.81,1.83,6.59,1.02,8.39-1.78,6.07-9.35,9.11-23.71,8.16-40.37l-.02-.17c-.85-14.74-4.85-31.53-12.6-48.4-4.61-9.99-3.78-15.42-.23-17.08,3.78-1.74,10.05-.87,16.87,2.21,7.48,3.4,15.26,9.47,21.08,17.93,17.89,25.98,16.87,74.19-64.78,137.08-2.11,1.44-3.34,2.42-3.34,2.42l-.42.47c-5.22,3.93-10.8,7.94-16.68,11.98-2.76,1.91-3.46,5.72-1.55,8.48,1.91,2.74,5.69,3.44,8.46,1.55,5.31-3.68,10.37-7.29,15.17-10.88,18.48,4.04,31.36,12.41,32.98,13.47l1.02.72,3.1,1.7c.38.53.89,1.02,1.49,1.4,22.28,15.04,37.52,35.61,47.59,53.92-2.1,5.7-15.59,37.99-58.77,58.68h0ZM110.27,231.71c-2.89-1.72-3.83-5.46-2.08-8.35,1.7-2.87,5.44-3.81,8.33-2.08,0,.02,9.85,6.12,18.46-.87,2.61-2.1,6.44-1.72,8.56.87,2.1,2.61,1.7,6.46-.89,8.56-15.34,12.47-32.34,1.89-32.38,1.87h0ZM150.29,186.07c.21-12.64-6.42-25.9-12.41-37.92-3.57-7.22-6.95-13.94-7.95-18.97,3.36.11,9.09,1.94,14.02,3.55,6.37,2.08,11.86,3.87,15.55,2.13,4.16-1.93,5.48-5.19,3.1-10.26-1.53-3.32-5.27-7.97-9.69-13.49-3.87-4.78-8.33-10.35-12.14-15.98-5.71-8.5-9.85-16.68-5.88-19.37,9.8-6.59,32.15,17.55,39.37,25.83-2.55,10.17-2.57,24.94,2.1,42.17,4.82,17.72-13,33.46-26.09,42.32Z"/>
  <path class="cls-6" d="M207.95,352.28c-5.37-10.88-16.61-14.4-22.22-15.51-2.47,3.59-6.5,10.22-8.08,17.21,6.33.21,11.56.15,17.23-.21,4.12-.25,8.6-1.02,13.06-1.49Z"/>
  <path class="cls-6" d="M278.58,293.26c-7.44,13.89-24.5,38.09-59.02,55.07l.7,1.7c25.02-5.52,47.99-16.57,67.58-31.74-1.36-4.78-4.25-13.92-9.26-25.03Z"/>
  <path class="cls-5" d="M134.91,75.74c-3.97,2.7.17,10.88,5.88,19.37,3.81,5.63,8.27,11.2,12.14,15.98,4.42,5.54,8.16,10.17,9.69,13.49,2.38,5.08,1.06,8.33-3.1,10.26-3.7,1.74-9.18-.04-15.55-2.13-4.93-1.61-10.67-3.44-14.02-3.55,1.02,5.04,4.38,11.75,7.95,18.97,5.99,12.02,12.62,25.28,12.41,37.94,13.09-8.88,30.91-24.62,26.09-42.36-4.68-17.21-4.65-31.98-2.1-42.15-7.22-8.28-29.57-32.42-39.37-25.83Z"/>
  <path class="cls-5" d="M188.15,140.56c7.65,28.15-22.48,50.5-37.28,59.55-8.31,5.08-6.69,4.25-14.83,5.89-30.66,6.31-53.47,24.37-65.07,35.42-18.38,17.59,24.03,21.03,38.07,16.15,6.48-2.27,12.62-3.7,18.33-4.33,13.22-1.49,24.52,1.19,33.74,7.65,9.07,6.31,15.96,16.19,20.46,29.19,2.64,7.52,4.48,16.08,5.52,25.62l.85,6.76.38,2.46c6.04,1.23,16.61,4.5,24.56,13.13,43.17-20.69,56.64-52.99,58.74-58.68-10.05-18.31-25.29-38.88-47.57-53.92-.6-.38-1.1-.87-1.49-1.4l-3.1-1.7-1.02-.72c-1.62-1.06-14.49-9.43-32.98-13.47-4.8,3.59-9.86,7.2-15.17,10.88-2.76,1.89-6.54,1.19-8.46-1.55-1.91-2.76-1.21-6.57,1.55-8.48,5.88-4.04,11.45-8.05,16.68-11.98l.4-.47s1.23-.98,3.36-2.42c81.65-62.89,82.67-111.1,64.78-137.08-5.82-8.46-13.6-14.53-21.08-17.93-6.82-3.08-13.09-3.95-16.87-2.21-3.55,1.65-4.38,7.09.23,17.08,7.76,16.87,11.75,33.66,12.62,48.4v.19c.96,16.64-2.08,31-8.13,40.35-1.83,2.8-5.61,3.61-8.41,1.78-1.59-1.02-2.55-2.7-2.74-4.46-7.41-69.41-27.88-43.21-16.09.32h0ZM143.54,221.28c2.1,2.61,1.7,6.46-.89,8.56-15.34,12.47-32.34,1.89-32.38,1.87-2.89-1.72-3.83-5.46-2.08-8.33,1.7-2.89,5.44-3.83,8.33-2.1,0,.04,9.85,6.12,18.46-.87,2.61-2.1,6.44-1.72,8.56.87Z"/>
  <path class="cls-3" d="M258.6,50.12c20.34,29.51,21.42,82.48-61.06,148.68,14.19,4.46,24.52,10.75,27.66,12.79l3.87,2.13c.85.47,1.53,1.11,2.04,1.83,41.71,28.22,60.42,74.45,66.84,94.25,2.06-1.87,4.1-3.81,6.07-5.78,30.91-30.93,50.06-73.66,50.06-120.87s-19.14-89.95-50.06-120.87c-30.93-30.94-73.68-50.08-120.89-50.08S93.21,31.34,62.3,62.27c-30.94,30.91-50.08,73.68-50.08,120.87s19.14,89.93,50.08,120.87c27,27.03,63.04,45.04,103.17,49.16,1.96-10.62,8.13-20.29,11.13-24.47l-.72-4.59-.87-7.07c-.95-8.67-2.61-16.36-4.91-22.97-3.67-10.58-9.05-18.44-15.93-23.24-6.74-4.72-15.26-6.63-25.45-5.5-4.87.53-10.11,1.78-15.68,3.72-30.04,10.45-77.87-8.5-54.3-32.55,11.47-11.71,39.16-35.91,77.72-42.92,4.97-11.05-2.68-26.47-9.44-40-4.12-8.26-7.94-15.95-9.13-22.73-1.51-8.56,2.23-12.45,8.75-13.58,5.04-.89,11.77.93,17.95,2.89l-1.15-1.42c-4.08-5.08-8.81-10.99-12.72-16.8-9.35-13.85-14.75-28.07-2.59-36.27,16.15-10.9,40.69,12.05,51.82,24.03,2.06-2.38,4.48-3.95,7.14-4.63,4.48-1.15,9.09.17,13.3,4.33,4.02,4.02,7.96,11.34,11.09,22.61.1-2.76.08-5.69-.09-8.71l-.02-.17c-.77-13.38-4.42-28.64-11.47-44.02-8.2-17.81-4.08-28.7,5.69-33.21,7.01-3.21,17.02-2.38,26.98,2.15,9.31,4.23,18.91,11.73,26.05,22.1Z"/>
  <path class="cls-1" d="M97.67,61.04l-5.63,4.61-5.44,4.86c-2.83,2.64-7.27,2.47-9.86-.36-2.64-2.82-2.46-7.24.34-9.88l5.86-5.23,6.06-4.99c3.03-2.38,7.44-1.87,9.84,1.17,2.38,3.02,1.87,7.44-1.17,9.82Z"/>
  <path class="cls-1" d="M69.26,78.2c3,2.42,3.46,6.84,1.04,9.84-9.15,11.35-16.89,24.03-22.94,37.75-5.84,13.26-10.05,27.49-12.39,42.53l-.78,5.55c-.51,3.8-4.02,6.52-7.82,6.01-3.83-.51-6.54-3.99-6.03-7.82l.78-5.88c2.51-16.21,7.1-31.66,13.43-46.04,6.5-14.79,14.92-28.51,24.88-40.88,2.42-3,6.82-3.49,9.83-1.06Z"/>
  <path class="cls-2" d="M317.97,141.5c0,44.77-17.36,85.47-45.72,115.77,14.1,20.63,21.96,41.02,25.71,52.52,2.06-1.87,4.1-3.81,6.07-5.78,30.91-30.93,50.06-73.66,50.06-120.87s-19.14-89.95-50.06-120.87c-3.82-3.82-7.82-7.48-11.98-10.92,10.03,15.98,17.51,33.74,21.78,52.73,2.38,10.5,3.76,21.4,4.08,32.55.06,1.61.06,3.23.06,4.86Z"/>
  <path class="cls-2" d="M148.53,310.93c-44.34,0-84.71-17.04-114.92-44.94,7.78,14,17.44,26.79,28.68,38.01,27,27.03,63.04,45.04,103.17,49.16,1.96-10.62,8.13-20.29,11.13-24.47l-.72-4.59-.87-7.07c-.32-2.76-.68-5.42-1.12-7.97-8.27,1.23-16.74,1.87-25.35,1.87Z"/>
</svg>